<?xml version="1.0" encoding="utf-8"?>
<!-- Generator: Adobe Illustrator 27.5.0, SVG Export Plug-In . SVG Version: 6.00 Build 0)  -->
<svg version="1.1" id="Capa_1" xmlns="http://www.w3.org/2000/svg" xmlns:xlink="http://www.w3.org/1999/xlink" x="0px" y="0px"
	 viewBox="0 0 2122 2122" style="enable-background:new 0 0 2122 2122;" xml:space="preserve">
<path style="fill:#F08291;" d="M1700.391,799.496c-0.298-3.277-0.603-6.555-0.926-9.833
	c-48.826-496.115-327.401-743.909-639.688-725.39l-0.422,0.025c-0.94,0.057-1.881,0.115-2.822,0.177l-0.886,0.058
	c-0.822,0.055-1.644,0.111-2.466,0.169l-1.255,0.092c-0.725,0.053-1.45,0.107-2.175,0.163c-0.557,0.043-1.115,0.089-1.673,0.134
	c-0.605,0.048-1.209,0.095-1.814,0.146c-1.164,0.097-2.33,0.197-3.495,0.302l-0.287,0.027c-1.145,0.103-2.289,0.21-3.433,0.319
	l-1.15,0.115c-0.845,0.084-1.69,0.166-2.535,0.253c-1.256,0.13-2.514,0.263-3.77,0.402
	c-350.849,38.543-548.065,348.842-516.786,829.839c-142.95,73.175-230.533,237.867-205.878,414.183
	c30.718,219.688,224.048,374.228,431.813,345.176c207.765-29.052,351.289-230.695,320.57-450.382
	c-26.406-188.848-172.973-329.555-345.577-346.884c-14.938-333.537,115.212-525.97,338.098-553.107
	c34.299-4.176,67.993-3.542,100.498,2.053l-0.308,0.048c147.471,25.248,270.556,152.488,314.973,395.924l0.111,0.607
	c0.161,0.885,0.321,1.773,0.479,2.66l0.131,0.737c0.161,0.905,0.321,1.81,0.48,2.719l0.058,0.333
	c0.525,3.007,1.038,6.032,1.54,9.074l0.084,0.508c0.137,0.831,0.272,1.666,0.407,2.5l0.186,1.151c0.12,0.751,0.24,1.502,0.359,2.255
	c0.074,0.469,0.148,0.939,0.221,1.409c0.113,0.722,0.226,1.444,0.338,2.168c0.071,0.462,0.141,0.926,0.212,1.388
	c0.112,0.737,0.225,1.473,0.337,2.212l0.142,0.958c0.211,1.41,0.419,2.824,0.625,4.241c0.089,0.614,0.178,1.228,0.266,1.843
	c0.09,0.628,0.179,1.259,0.268,1.89c0.083,0.589,0.167,1.179,0.249,1.77c0.089,0.642,0.179,1.283,0.267,1.926
	c0.086,0.626,0.172,1.254,0.257,1.882c0.081,0.597,0.162,1.194,0.242,1.793c0.096,0.716,0.191,1.435,0.286,2.153
	c0.071,0.537,0.142,1.073,0.213,1.61c0.111,0.851,0.22,1.704,0.33,2.558c0.107,0.838,0.214,1.678,0.319,2.52
	c0.097,0.776,0.195,1.554,0.291,2.332c0.059,0.481,0.118,0.963,0.177,1.446c0.099,0.813,0.199,1.627,0.296,2.443
	c0.059,0.493,0.118,0.987,0.176,1.481c0.094,0.798,0.188,1.595,0.281,2.396c0.059,0.516,0.119,1.032,0.179,1.548
	c0.091,0.794,0.181,1.59,0.271,2.386c0.056,0.495,0.112,0.989,0.167,1.485c0.14,1.258,0.278,2.517,0.414,3.781l0.058,0.544
	c0.121,1.133,0.241,2.268,0.36,3.407l0.124,1.208c0.093,0.9,0.185,1.801,0.276,2.705c0.049,0.494,0.099,0.989,0.148,1.485
	c0.079,0.792,0.156,1.583,0.233,2.377c0.055,0.568,0.11,1.136,0.165,1.705c0.075,0.792,0.15,1.586,0.224,2.38
	c0.048,0.51,0.096,1.021,0.143,1.533c0.12,1.301,0.238,2.603,0.354,3.909c0.248,2.797,0.479,5.593,0.701,8.388
	c-2.165,0.63-4.299,1.292-6.399,1.987c-145.857,43.67-253.89,201.565-253.89,389.66c0,220.52,148.494,399.531,332.339,401.628
	c4.735,0.448,9.568,0.833,14.503,1.154c-3.48,14.504,6.502,97.609,14.737,124.108c1.001,3.22,2.109,6.509,4.056,9.228
	c-16.013,13.729-36.981,22.842-59.595,25.814c-7.381,0.97-15.062,1.345-22.487,1.71c-10.051,0.492-20.443,0.999-30.653,2.963
	c-27.096,5.208-50.675,20.097-70.163,33.973c-45.111,32.112-84.911,70.792-118.297,114.957c-5.756,7.615-11.437,15.483-17.15,23.396
	c-29.367,40.667-59.732,82.723-105.91,96.843c-22.946,7.006-47.328,6.197-70.263,4.292c-70.572-5.885-139.201-23.411-203.973-52.088
	c-16.763-7.42-33.963-15.81-50.599-23.922c-69.759-34.022-141.89-69.213-217.159-53.052
	c-48.521,10.412-89.021,41.018-128.185,70.621c-37.552,28.38-76.383,57.724-121.622,68.331
	c-54.97,12.896-115.949-4.921-155.332-45.389c-39.251-40.324-53.995-96.047-57.624-154.788c6.531-0.147,12.769-1.721,16.215-7.94
	c4.999-9.022,5.454-98.972-2.415-126.742c-1.076-3.797-2.291-7.692-4.856-10.691c-2.565-2.999-6.838-4.888-10.544-3.533
	c-3.519,1.287-5.491,4.94-7.128,8.311c-19.686,40.516-33.895,105.079-28.193,127.564c2.612,10.302,7.667,11.298,24.915,12.414
	c0.646,0.041,1.307,0.091,1.98,0.143c3.632,61.171,18.969,119.552,60.498,162.22c32.753,33.652,79.574,52.536,126.375,52.536
	c12.896-0.005,25.793-1.437,38.39-4.39c47.293-11.089,86.979-41.081,125.357-70.09c38.299-28.945,77.902-58.875,124.265-68.823
	c71.9-15.411,142.458,18.991,210.691,52.263c16.716,8.155,34.003,16.584,50.933,24.077c65.793,29.13,135.498,46.928,207.184,52.906
	c22.777,1.905,49.383,2.831,74.009-4.692c49.386-15.099,80.75-58.533,111.079-100.54c5.671-7.854,11.308-15.664,17.023-23.226
	c32.769-43.352,71.839-81.32,116.124-112.843c18.614-13.252,41.04-27.454,66.26-32.297c9.518-1.832,19.106-2.304,29.255-2.801
	c7.627-0.37,15.513-0.76,23.301-1.784c25.84-3.397,49.76-14.242,67.561-30.595c0.825-0.034,1.642-0.195,2.43-0.506
	c3.485-1.375,5.365-5.077,6.917-8.486c18.66-41,39.246-105.926,32.98-128.26l-0.241-0.763c8.434-0.377,17.094-0.895,25.993-1.563
	c184.642-13.87,335.603-179.824,335.603-401.648C2000.737,991.38,1869.168,820.585,1700.391,799.496z"/>
<path style="fill:#511641;" d="M1699.465,789.663c-48.826-496.115-327.401-743.909-639.688-725.39l-0.422,0.025
	c-0.94,0.057-1.881,0.115-2.822,0.177l-0.886,0.058c-0.822,0.055-1.644,0.111-2.466,0.169l-1.255,0.092
	c-0.725,0.053-1.45,0.107-2.175,0.163c-0.557,0.043-1.115,0.089-1.673,0.134c-0.605,0.048-1.209,0.095-1.814,0.146
	c-1.164,0.097-2.33,0.197-3.495,0.302l-0.287,0.027c-1.145,0.103-2.289,0.21-3.433,0.319l-1.15,0.115
	c-0.845,0.084-1.69,0.166-2.535,0.253c-1.256,0.13-2.514,0.263-3.77,0.402c-350.849,38.543-548.065,348.842-516.786,829.839
	c0.93,14.294,2.058,28.737,3.393,43.331c1.05-0.457,2.103-0.907,3.157-1.353l1.053-0.442c0.7-0.293,1.401-0.588,2.103-0.878
	l1.222-0.5c0.68-0.278,1.359-0.555,2.041-0.829l1.139-0.456c0.698-0.277,1.398-0.555,2.098-0.829l1.144-0.446
	c0.754-0.293,1.51-0.583,2.267-0.871l0.891-0.34c0.894-0.338,1.79-0.672,2.686-1.004l0.544-0.202
	c4.494-1.654,9.018-3.229,13.569-4.725l0.083-0.027c25.291-8.312,51.411-14.24,77.874-18.442l0-0.01
	c29.203-4.637,58.824-7.168,88.21-8.461c-1.092-14.04-1.94-27.848-2.548-41.422c-14.938-333.537,115.212-525.97,338.098-553.107
	c34.299-4.176,67.993-3.542,100.498,2.053l-0.308,0.048c147.471,25.248,270.556,152.488,314.973,395.924l0.111,0.607
	c0.161,0.885,0.321,1.773,0.479,2.66l0.131,0.737c0.161,0.905,0.321,1.81,0.48,2.719l0.058,0.333
	c0.525,3.007,1.038,6.032,1.54,9.074l0.084,0.508c0.137,0.831,0.272,1.666,0.407,2.5l0.186,1.151c0.12,0.751,0.24,1.502,0.359,2.255
	c0.074,0.469,0.148,0.939,0.221,1.409c0.113,0.722,0.226,1.444,0.338,2.168c0.071,0.462,0.141,0.926,0.212,1.388
	c0.112,0.737,0.225,1.473,0.337,2.212l0.142,0.958c0.211,1.41,0.419,2.824,0.625,4.241c0.089,0.614,0.178,1.228,0.266,1.843
	c0.09,0.628,0.179,1.259,0.268,1.89c0.083,0.589,0.167,1.179,0.249,1.77c0.089,0.642,0.179,1.283,0.267,1.926
	c0.086,0.626,0.172,1.254,0.257,1.882c0.081,0.597,0.162,1.194,0.242,1.793c0.096,0.716,0.191,1.435,0.286,2.153
	c0.071,0.537,0.142,1.073,0.213,1.61c0.111,0.851,0.22,1.704,0.33,2.558c0.107,0.838,0.214,1.678,0.319,2.52
	c0.097,0.776,0.195,1.554,0.291,2.332c0.059,0.481,0.118,0.963,0.177,1.446c0.099,0.813,0.199,1.627,0.296,2.443
	c0.059,0.493,0.118,0.987,0.176,1.481c0.094,0.798,0.188,1.595,0.281,2.396c0.059,0.516,0.119,1.032,0.179,1.548
	c0.091,0.794,0.181,1.59,0.271,2.386c0.056,0.495,0.112,0.989,0.167,1.485c0.14,1.258,0.278,2.517,0.414,3.781l0.058,0.544
	c0.121,1.133,0.241,2.268,0.36,3.407l0.124,1.208c0.093,0.9,0.185,1.801,0.276,2.705c0.049,0.494,0.099,0.989,0.148,1.485
	c0.079,0.792,0.156,1.583,0.233,2.377c0.055,0.568,0.11,1.136,0.165,1.705c0.075,0.792,0.15,1.586,0.224,2.38
	c0.048,0.51,0.096,1.021,0.143,1.533c0.12,1.301,0.238,2.603,0.354,3.909c0.248,2.797,0.479,5.593,0.701,8.388
	c34.411-10.006,76.641-11.905,113.41-11.659c28.387,0.189,53.519,1.657,69.283,1.657c11.908,0,23.67,0.744,35.257,2.191
	C1700.093,796.219,1699.788,792.942,1699.465,789.663z"/>
<path style="fill:#F39BA6;" d="M1569.464,1600.36l0.016-0.032c5.348-10.254,27.039-9.535,36.674-9.155
	c6.911,0.272,13.151,0.572,18.336,1.487c153.377-37.036,268.868-199.229,268.868-393.705c0-221.824-150.255-401.649-335.603-401.649
	c-28.185,0-55.557,4.158-81.713,11.989c-145.857,43.67-253.89,201.565-253.89,389.66c0,220.52,148.494,399.531,332.339,401.628
	c1.087,0.012,2.174,0.021,3.264,0.021C1561.674,1600.602,1565.577,1600.52,1569.464,1600.36z"/>
<path style="fill:#F39BA6;" d="M630.073,908.471l0,0.01c-26.462,4.202-52.582,10.13-77.874,18.442l-0.083,0.027
	c-4.55,1.496-9.075,3.071-13.569,4.725l-0.544,0.202c-0.896,0.332-1.792,0.667-2.686,1.004l-0.891,0.34
	c-0.756,0.287-1.512,0.577-2.267,0.871l-1.144,0.446c-0.701,0.274-1.4,0.552-2.098,0.829l-1.139,0.456
	c-0.682,0.274-1.362,0.551-2.041,0.829l-1.222,0.5c-0.702,0.29-1.403,0.584-2.103,0.878l-1.053,0.442
	c-1.054,0.446-2.106,0.896-3.157,1.353c-1.335-14.593-2.464-29.037-3.393-43.331c-142.95,73.175-230.533,237.867-205.878,414.183
	c30.718,219.688,224.048,374.228,431.813,345.176c207.765-29.052,351.289-230.695,320.57-450.382
	c-26.406-188.848-172.973-329.555-345.577-346.884c0.608,13.574,1.456,27.382,2.548,41.422
	C688.896,901.302,659.276,903.833,630.073,908.471z"/>
<path style="fill:#F08291;" d="M944.803,1221.764c24.363,174.227-89.99,334.733-254.911,357.797
	c-13.369,1.871-26.674,2.777-39.836,2.782c-149.21,0.005-281.054-116.828-303.442-276.935
	c-11.542-82.537,8.049-161.994,49.398-225.219c-5.246-6.536-12.504-11.843-22.459-12.933c29.312-3.204,35.25-41.659,35.25-41.659
	s1.877,13.201,9.328,24.78c45.668-54.452,109.447-92.425,183.393-102.766C766.442,924.522,920.44,1047.537,944.803,1221.764z"/>
<path style="fill:#F39BA6;" d="M408.804,1110.251c0,0-1.535-10.281-6.893-20.812c-38.394,60.643-56.381,136.176-45.417,214.585
	c23.6,168.779,172.558,287.902,332.014,265.656c159.473-22.299,270.014-177.754,246.414-346.533
	c-21.69-155.118-149.254-268.336-293.564-268.336c-12.709,0-25.544,0.877-38.45,2.68c-72.073,10.078-134.15,47.354-178.368,100.764
	c4.821,4.627,11.044,8.126,19.043,9.001C414.271,1070.461,408.804,1110.251,408.804,1110.251z"/>
<path style="fill:#3D0E2D;" d="M521.358,938.472l1.053-0.442c0.7-0.293,1.401-0.588,2.103-0.878l1.222-0.5
	c0.68-0.278,1.359-0.555,2.041-0.829l1.139-0.456c0.698-0.277,1.398-0.555,2.098-0.829l1.144-0.446
	c0.754-0.293,1.51-0.583,2.267-0.871l0.891-0.34c0.894-0.338,1.79-0.672,2.686-1.004l0.544-0.202
	c4.494-1.654,9.018-3.229,13.569-4.725l0.083-0.027c25.291-8.312,51.411-14.24,77.874-18.442l0-0.01
	c-35.347-487.802,162.182-802.953,515.928-841.815c1.027-0.113,2.051-0.19,3.078-0.297c-34.845-3.751-70.378-4.046-106.31-0.819
	l-0.287,0.027c-1.145,0.103-2.289,0.21-3.433,0.319l-1.15,0.115c-0.845,0.084-1.69,0.166-2.535,0.253
	c-1.256,0.13-2.514,0.263-3.77,0.402c-350.849,38.543-548.065,348.842-516.786,829.839c0.93,14.294,2.058,28.737,3.393,43.331
	C519.251,939.368,520.304,938.918,521.358,938.472z"/>
<path style="fill:#3D0E2D;" d="M1595.851,795.648c-19.204-209.568-89.175-348.874-184.931-424.397
	c-7.291,11.882-9.135,25.306-9.135,25.306s-5.938-39.79-35.25-42.994c4.949-0.541,9.231-2.089,12.932-4.285
	c-63.361-38.911-135.828-52.978-211.226-43.797c-4.701,0.572-9.296,1.329-13.909,2.053l-0.308,0.048
	c147.471,25.248,270.556,152.488,314.973,395.924l0.111,0.607c0.161,0.885,0.321,1.773,0.479,2.66l0.131,0.737
	c0.161,0.905,0.321,1.81,0.48,2.719l0.058,0.333c0.525,3.007,1.038,6.032,1.54,9.074l0.084,0.508c0.137,0.831,0.272,1.666,0.407,2.5
	l0.186,1.151c0.12,0.751,0.24,1.502,0.359,2.255c0.074,0.469,0.148,0.939,0.221,1.409c0.113,0.722,0.226,1.444,0.338,2.168
	c0.071,0.462,0.141,0.926,0.212,1.388c0.112,0.737,0.225,1.473,0.337,2.212l0.142,0.958c0.211,1.41,0.419,2.824,0.625,4.241
	c0.089,0.614,0.178,1.228,0.266,1.843c0.09,0.628,0.179,1.259,0.268,1.89c0.083,0.589,0.167,1.179,0.249,1.77
	c0.089,0.642,0.179,1.283,0.267,1.926c0.086,0.626,0.172,1.254,0.257,1.882c0.081,0.597,0.162,1.194,0.242,1.793
	c0.096,0.716,0.191,1.435,0.286,2.153c0.071,0.537,0.142,1.073,0.213,1.61c0.111,0.851,0.22,1.704,0.33,2.558
	c0.107,0.838,0.214,1.678,0.319,2.52c0.097,0.776,0.195,1.554,0.291,2.332c0.059,0.481,0.118,0.963,0.177,1.446
	c0.099,0.813,0.199,1.627,0.296,2.443c0.059,0.493,0.118,0.987,0.176,1.481c0.094,0.798,0.188,1.595,0.281,2.396
	c0.059,0.516,0.119,1.032,0.179,1.548c0.091,0.794,0.181,1.59,0.271,2.386c0.056,0.495,0.112,0.989,0.167,1.485
	c0.14,1.258,0.278,2.517,0.414,3.781l0.058,0.544c0.121,1.133,0.241,2.268,0.36,3.407l0.124,1.208
	c0.093,0.9,0.185,1.801,0.276,2.705c0.049,0.494,0.099,0.989,0.148,1.485c0.079,0.792,0.156,1.583,0.233,2.377
	c0.055,0.568,0.11,1.136,0.165,1.705c0.075,0.792,0.15,1.586,0.224,2.38c0.048,0.51,0.096,1.021,0.143,1.533
	c0.12,1.301,0.238,2.603,0.354,3.909c0.248,2.797,0.479,5.593,0.701,8.388C1516.852,797.302,1559.082,795.403,1595.851,795.648z"/>
<path style="fill:#511641;" d="M1624.49,1592.659c-5.185-0.916-11.425-1.215-18.336-1.487c-9.635-0.38-31.326-1.098-36.674,9.155
	l-0.016,0.032c-0.177,0.35-0.333,0.81-0.47,1.375c-3.48,14.504,6.502,97.609,14.737,124.108c1.001,3.22,2.109,6.509,4.056,9.228
	c-16.013,13.729-36.981,22.842-59.595,25.814c-7.381,0.97-15.062,1.345-22.487,1.71c-10.051,0.492-20.443,0.999-30.653,2.963
	c-27.096,5.208-50.675,20.097-70.163,33.973c-45.111,32.112-84.911,70.792-118.297,114.957c-5.756,7.615-11.437,15.483-17.15,23.396
	c-29.367,40.667-59.732,82.723-105.91,96.843c-22.946,7.006-47.328,6.197-70.263,4.292c-70.572-5.885-139.201-23.411-203.973-52.088
	c-16.763-7.42-33.963-15.81-50.599-23.922c-69.759-34.022-141.89-69.213-217.159-53.052
	c-48.521,10.412-89.021,41.018-128.185,70.621c-37.552,28.38-76.383,57.724-121.622,68.331
	c-54.97,12.896-115.949-4.921-155.332-45.389c-39.251-40.324-53.995-96.047-57.624-154.788c6.531-0.147,12.769-1.721,16.215-7.94
	c4.999-9.022,5.454-98.972-2.415-126.742c-1.076-3.797-2.291-7.692-4.856-10.691c-2.565-2.999-6.838-4.888-10.544-3.533
	c-3.519,1.287-5.491,4.94-7.128,8.311c-19.686,40.516-33.895,105.079-28.193,127.564c2.612,10.302,7.667,11.298,24.915,12.414
	c0.646,0.041,1.307,0.091,1.98,0.143c3.632,61.171,18.969,119.552,60.498,162.22c32.753,33.652,79.574,52.536,126.375,52.536
	c12.896-0.005,25.793-1.437,38.39-4.39c47.293-11.089,86.979-41.081,125.357-70.09c38.299-28.945,77.902-58.875,124.265-68.823
	c71.9-15.411,142.458,18.991,210.691,52.263c16.716,8.155,34.003,16.584,50.933,24.077c65.793,29.13,135.498,46.928,207.184,52.906
	c22.777,1.905,49.383,2.831,74.009-4.692c49.386-15.099,80.75-58.533,111.079-100.54c5.671-7.854,11.308-15.664,17.023-23.226
	c32.769-43.352,71.839-81.32,116.124-112.843c18.614-13.252,41.04-27.454,66.26-32.297c9.518-1.832,19.106-2.304,29.255-2.801
	c7.627-0.37,15.513-0.76,23.301-1.784c25.84-3.397,49.76-14.242,67.561-30.595c0.825-0.034,1.642-0.195,2.43-0.506
	c3.485-1.375,5.365-5.077,6.917-8.486c18.66-41,39.246-105.926,32.98-128.26l-0.241-0.763
	C1637.195,1596.56,1631.931,1593.973,1624.49,1592.659z"/>
<path style="fill:#FFFFFF;" d="M478.833,1194.904c0,0,5.468-39.789,34.78-42.995c-29.311-3.204-34.78-41.659-34.78-41.659
	s-5.938,38.455-35.25,41.659C472.895,1155.115,478.833,1194.904,478.833,1194.904z"/>
<path style="fill:#FFFFFF;" d="M1436.564,353.563c-29.311-3.204-34.779-41.66-34.779-41.66s-4.104,26.565-22.318,37.375
	c-3.7,2.196-7.982,3.744-12.932,4.285c29.312,3.204,35.25,42.994,35.25,42.994s1.845-13.424,9.135-25.306
	C1416.181,362.677,1424.277,354.906,1436.564,353.563z"/>
<path style="fill:#FFFFFF;" d="M408.804,1110.251c0,0,5.467-39.79,34.78-42.995c-7.999-0.875-14.222-4.374-19.043-9.001
	c-2.494-2.394-4.614-5.089-6.409-7.879c-7.451-11.578-9.328-24.78-9.328-24.78s-5.938,38.455-35.25,41.659
	c9.955,1.089,17.213,6.397,22.459,12.933c2.349,2.928,4.296,6.1,5.899,9.251C407.269,1099.969,408.804,1110.251,408.804,1110.251z"
	/>
<path style="fill:#FFFFFF;" d="M537.983,1076.088c0,0,5.468-39.791,34.78-42.995c-29.312-3.204-34.78-41.659-34.78-41.659
	s-5.938,38.455-35.25,41.659C532.044,1036.297,537.983,1076.088,537.983,1076.088z"/>
<path style="fill:#FFFFFF;" d="M1889.824,939.825c0,0-5.938,38.454-35.25,41.659c29.312,3.204,35.25,42.995,35.25,42.995
	s5.469-39.79,34.78-42.995C1895.293,978.279,1889.824,939.825,1889.824,939.825z"/>
<path style="fill:#511641;" d="M1678.927,1196.565l-0.009-0.582c-0.011-0.678-0.026-1.355-0.045-2.031l-0.01-0.383
	c-0.024-0.792-0.054-1.582-0.088-2.371l-0.023-0.468c-0.031-0.666-0.066-1.33-0.105-1.993l-0.028-0.486
	c-0.098-1.606-0.218-3.206-0.36-4.798l-0.036-0.401c-0.071-0.778-0.146-1.555-0.227-2.329l-0.005-0.049
	c-0.087-0.83-0.181-1.656-0.28-2.482l-0.022-0.181c-0.094-0.776-0.193-1.551-0.297-2.324l-0.021-0.157
	c-0.225-1.653-0.472-3.297-0.743-4.931l-0.017-0.107c-0.107-0.644-0.219-1.286-0.333-1.927l-0.068-0.376
	c-0.096-0.529-0.194-1.058-0.294-1.585l-0.073-0.379c-0.253-1.315-0.522-2.624-0.805-3.925l-0.009-0.042
	c-13.58-62.335-60.936-108.346-117.275-108.346c-66.932,0-121.191,64.937-121.191,145.041c0,71.984,43.818,131.716,101.272,143.086
	l0.031,0.006l1.253,0.24l0.335,0.06l0.991,0.176l1.321,0.218l0.12,0.02c0.461,0.073,0.923,0.142,1.386,0.207l0.196,0.029
	c0.451,0.064,0.903,0.123,1.356,0.181l0.213,0.027l1.259,0.149l0.349,0.039l1.156,0.118l0.427,0.042l1.131,0.098l0.446,0.038
	l1.087,0.076l0.507,0.035l1.067,0.058l0.51,0.026l1.075,0.043l0.521,0.019l1.253,0.029l0.326,0.007
	c0.533,0.008,1.067,0.013,1.602,0.013c11.504,0,22.633-1.918,33.177-5.502c0.479-0.163,0.957-0.329,1.434-0.499
	c1.907-0.679,3.795-1.413,5.661-2.2c2.334-0.984,4.634-2.051,6.9-3.197c0.906-0.459,1.807-0.93,2.702-1.414l1.338-0.736
	c1.333-0.745,2.654-1.518,3.96-2.32c1.307-0.8,2.599-1.628,3.877-2.484c0.852-0.571,1.698-1.153,2.538-1.746
	c0.839-0.594,1.672-1.199,2.499-1.817c0.826-0.618,1.645-1.246,2.458-1.887c1.219-0.96,2.423-1.946,3.611-2.957
	c0.792-0.674,1.577-1.359,2.354-2.055c1.167-1.045,2.317-2.113,3.45-3.206c1.134-1.093,2.25-2.209,3.35-3.349
	c0.733-0.76,1.458-1.53,2.176-2.311c0.717-0.78,1.427-1.571,2.128-2.371c0.701-0.8,1.395-1.611,2.08-2.431
	c0.686-0.82,1.363-1.65,2.032-2.49c1.003-1.259,1.988-2.54,2.953-3.842c0.965-1.302,1.911-2.625,2.837-3.968
	c2.47-3.582,4.799-7.308,6.977-11.165c1.089-1.929,2.14-3.892,3.152-5.886c0.253-0.498,0.504-0.999,0.752-1.501
	c0.496-1.005,0.983-2.017,1.459-3.037c1.906-4.079,3.651-8.282,5.228-12.592c0.394-1.078,0.777-2.162,1.15-3.253
	c4.644-13.603,7.611-28.239,8.595-43.538l0.015-0.229c0.23-3.65,0.347-7.337,0.347-11.058
	C1678.945,1198.156,1678.938,1197.359,1678.927,1196.565z"/>
<path style="fill:#3D0E2D;" d="M1612.373,1069.488c20.729,26.028,33.481,61.237,33.481,100.032
	c0,80.104-54.259,145.041-121.19,145.041c-19.656,0-38.203-5.636-54.618-15.576c18.606,23.361,43.643,39.321,71.722,43.756
	l0.12,0.02c0.461,0.073,0.923,0.142,1.386,0.207l0.196,0.029c0.451,0.064,0.903,0.123,1.356,0.181l0.213,0.027l1.259,0.149
	l0.349,0.039l1.156,0.118l0.427,0.042l1.131,0.098l0.446,0.038l1.087,0.076l0.507,0.035l1.067,0.058l0.51,0.026l1.075,0.043
	l0.521,0.019l1.253,0.029l0.326,0.007c0.533,0.008,1.067,0.013,1.602,0.013c11.504,0,22.633-1.918,33.177-5.502
	c0.479-0.163,0.957-0.329,1.434-0.499c1.907-0.679,3.795-1.413,5.661-2.2c2.334-0.984,4.634-2.051,6.9-3.197
	c0.906-0.459,1.807-0.93,2.702-1.414l1.338-0.736c1.333-0.745,2.654-1.518,3.96-2.32c1.307-0.8,2.599-1.628,3.877-2.484
	c0.852-0.571,1.698-1.153,2.538-1.746c0.839-0.594,1.672-1.199,2.499-1.817c0.826-0.618,1.645-1.246,2.458-1.887
	c1.219-0.96,2.423-1.946,3.611-2.957c0.792-0.674,1.577-1.359,2.354-2.055c1.167-1.045,2.317-2.113,3.45-3.206
	c1.134-1.093,2.25-2.209,3.35-3.349c0.733-0.76,1.458-1.53,2.176-2.311c0.717-0.78,1.427-1.571,2.128-2.371
	c0.701-0.8,1.395-1.611,2.08-2.431c0.686-0.82,1.363-1.65,2.032-2.49c1.003-1.259,1.988-2.54,2.953-3.842
	c0.965-1.302,1.911-2.625,2.837-3.968c2.47-3.582,4.799-7.308,6.977-11.165c1.089-1.929,2.14-3.892,3.152-5.886
	c0.253-0.498,0.504-0.999,0.752-1.501c0.496-1.005,0.983-2.017,1.459-3.037c1.906-4.079,3.651-8.282,5.228-12.592
	c0.394-1.078,0.777-2.162,1.15-3.253c4.644-13.603,7.611-28.239,8.595-43.538l0.015-0.229c0.23-3.65,0.347-7.337,0.347-11.058
	c0-0.798-0.007-1.595-0.018-2.389l-0.009-0.582c-0.011-0.678-0.026-1.355-0.045-2.031l-0.01-0.383
	c-0.024-0.792-0.054-1.582-0.088-2.371l-0.023-0.468c-0.031-0.666-0.066-1.33-0.105-1.993l-0.028-0.486
	c-0.098-1.606-0.218-3.206-0.36-4.798l-0.036-0.401c-0.071-0.778-0.146-1.555-0.227-2.329l-0.005-0.049
	c-0.087-0.83-0.181-1.656-0.28-2.482l-0.022-0.181c-0.094-0.776-0.193-1.551-0.297-2.324l-0.021-0.157
	c-0.225-1.653-0.472-3.297-0.743-4.931l-0.017-0.107C1669.249,1126.251,1645.059,1089.279,1612.373,1069.488z"/>
</svg>
